# xmcd
#
# Track frame offsets: 
#        150
#        13333
#        28614
#        47777
#        72397
#        96363
#        117053
#        127916
#        141915
#        161722
#        172877
#        182055
#        197470
#        224903
#        235731
#        254735
#        301227
#
# Disc length: 4293 seconds
#
# Revision: 1
# Processed by: cddbd v1.5.2PL0 Copyright (c) Steve Scherf et al.
# Submitted via: ExactAudioCopy v0.99pb5
#
DISCID=f810c311
DTITLE=Vince Guaraldi - The Definitive Vince Guaraldi [Disc 2]
DYEAR=2009
DGENRE=Blues
TTITLE0=Mr. Lucky
TTITLE1=Corovado
TTITLE2=Work Song
TTITLE3=Ginza Samba
TTITLE4=The Girl from Ipanema
TTITLE5=El Matador
TTITLE6=Oh, Good Greif
TTITLE7=Linus and Lucy
TTITLE8=Charlie Brown Theme
TTITLE9=Great Pumpkin Waltz
TTITLE10=Thankgiving Theme
TTITLE11=Christmas Is Coming
TTITLE12=Christmas Time Is Here [Instrumental Version]
TTITLE13=Skating
TTITLE14=Theme to Grace [Live]
TTITLE15=Autumn Leaves [Previously Unreleased]
TTITLE16=Blues for Peanuts [Previuosly Unreleased]
EXTD=YEAR: 2009
EXTT0=
EXTT1=
EXTT2=
EXTT3=
EXTT4=
EXTT5=
EXTT6=
EXTT7=
EXTT8=
EXTT9=
EXTT10=
EXTT11=
EXTT12=
EXTT13=
EXTT14=
EXTT15=
EXTT16=
PLAYORDER=
